<svg xmlns="http://www.w3.org/2000/svg" viewBox="0 0 64 64" role="img" aria-label="Eunie's Kitchen">
  <circle cx="32" cy="32" r="31" fill="#a51c21"/>
  <circle cx="32" cy="32" r="26.5" fill="none" stroke="#f6cf87" stroke-width="1.3" stroke-dasharray="2.2 3.2"/>
  <path d="M21.5 31.5c-3.6 0-6-2.8-6-5.8 0-3.3 2.7-5.9 5.9-5.9.6 0 1.1.1 1.7.3A8 8 0 0 1 32 14.6a8 8 0 0 1 8.9 5.5c.6-.2 1.1-.3 1.7-.3 3.2 0 5.9 2.6 5.9 5.9 0 3-2.4 5.8-6 5.8v6.7h-21z" fill="#fbf6ee"/>
  <rect x="21.5" y="40" width="21" height="4.2" rx="1.6" fill="#e9a23b"/>
  <path d="M26.3 47.5v4.8M32 47.5v4.8M37.7 47.5v4.8" stroke="#fbf6ee" stroke-width="2" stroke-linecap="round"/>
</svg>
